G04 Layer: BottomSolderMaskLayer*
G04 EasyEDA v6.2.46, 2019-12-15T14:12:23+01:00*
G04 62ef9a7e5eba40e79a6bb794ca2fffcb,674c0623d3a246009f606e19fc16e94a,10*
G04 Gerber Generator version 0.2*
G04 Scale: 100 percent, Rotated: No, Reflected: No *
G04 Dimensions in millimeters *
G04 leading zeros omitted , absolute positions ,3 integer and 3 decimal *
%FSLAX33Y33*%
%MOMM*%
G90*
G71D02*

%ADD68C,2.003196*%
%ADD71C,1.727200*%
%ADD75C,5.403190*%
%ADD80C,1.903197*%
%ADD81C,2.403196*%
%ADD82C,0.803199*%
%ADD83C,0.603199*%
%ADD86R,2.103120X2.103120*%

%LPD*%
G54D82*
G01X43434Y16111D02*
G01X43434Y17111D01*
G01X44704Y16111D02*
G01X44704Y17111D01*
G01X45974Y16111D02*
G01X45974Y17111D01*
G01X47244Y16111D02*
G01X47244Y17111D01*
G01X43434Y10168D02*
G01X43434Y11168D01*
G01X44704Y10168D02*
G01X44704Y11168D01*
G01X45974Y10168D02*
G01X45974Y11168D01*
G01X47244Y10168D02*
G01X47244Y11168D01*
G54D83*
G01X39583Y4936D02*
G01X39583Y6036D01*
G01X38933Y4936D02*
G01X38933Y6036D01*
G01X38282Y4936D02*
G01X38282Y6036D01*
G01X37632Y4936D02*
G01X37632Y6036D01*
G01X39583Y11337D02*
G01X39583Y12437D01*
G01X38933Y11337D02*
G01X38933Y12437D01*
G01X38282Y11337D02*
G01X38282Y12437D01*
G01X37632Y11337D02*
G01X37632Y12437D01*
G36*
G01X49276Y22415D02*
G01X49276Y24219D01*
G01X50878Y24219D01*
G01X50878Y22415D01*
G01X49276Y22415D01*
G37*
G36*
G01X49276Y16014D02*
G01X49276Y17818D01*
G01X50878Y17818D01*
G01X50878Y16014D01*
G01X49276Y16014D01*
G37*
G36*
G01X51762Y22717D02*
G01X51762Y24371D01*
G01X53266Y24371D01*
G01X53266Y22717D01*
G01X51762Y22717D01*
G37*
G36*
G01X51762Y15859D02*
G01X51762Y17513D01*
G01X53266Y17513D01*
G01X53266Y15859D01*
G01X51762Y15859D01*
G37*
G54D86*
G01X52514Y21310D03*
G01X52514Y18923D03*
G36*
G01X49072Y21110D02*
G01X49072Y21712D01*
G01X50624Y21712D01*
G01X50624Y21110D01*
G01X49072Y21110D01*
G37*
G36*
G01X49072Y18519D02*
G01X49072Y19121D01*
G01X50624Y19121D01*
G01X50624Y18519D01*
G01X49072Y18519D01*
G37*
G36*
G01X49072Y20475D02*
G01X49072Y21077D01*
G01X50624Y21077D01*
G01X50624Y20475D01*
G01X49072Y20475D01*
G37*
G36*
G01X49072Y19154D02*
G01X49072Y19756D01*
G01X50624Y19756D01*
G01X50624Y19154D01*
G01X49072Y19154D01*
G37*
G36*
G01X49072Y19814D02*
G01X49072Y20416D01*
G01X50624Y20416D01*
G01X50624Y19814D01*
G01X49072Y19814D01*
G37*
G36*
G01X43487Y12288D02*
G01X43487Y14991D01*
G01X47190Y14991D01*
G01X47190Y12288D01*
G01X43487Y12288D01*
G37*
G36*
G01X45369Y6383D02*
G01X45369Y7688D01*
G01X46573Y7688D01*
G01X46573Y6383D01*
G01X45369Y6383D01*
G37*
G36*
G01X46769Y6383D02*
G01X46769Y7688D01*
G01X47972Y7688D01*
G01X47972Y6383D01*
G01X46769Y6383D01*
G37*
G36*
G01X47452Y26012D02*
G01X47452Y27683D01*
G01X48813Y27683D01*
G01X48813Y26012D01*
G01X47452Y26012D01*
G37*
G36*
G01X45420Y26012D02*
G01X45420Y27683D01*
G01X46781Y27683D01*
G01X46781Y26012D01*
G01X45420Y26012D01*
G37*
G36*
G01X51008Y8666D02*
G01X51008Y9469D01*
G01X51861Y9469D01*
G01X51861Y8666D01*
G01X51008Y8666D01*
G37*
G36*
G01X51008Y7818D02*
G01X51008Y8620D01*
G01X51861Y8620D01*
G01X51861Y7818D01*
G01X51008Y7818D01*
G37*
G36*
G01X37927Y18867D02*
G01X37927Y19669D01*
G01X38780Y19669D01*
G01X38780Y18867D01*
G01X37927Y18867D01*
G37*
G36*
G01X37927Y19715D02*
G01X37927Y20518D01*
G01X38780Y20518D01*
G01X38780Y19715D01*
G01X37927Y19715D01*
G37*
G36*
G01X35514Y12898D02*
G01X35514Y13700D01*
G01X36367Y13700D01*
G01X36367Y12898D01*
G01X35514Y12898D01*
G37*
G36*
G01X35514Y13746D02*
G01X35514Y14549D01*
G01X36367Y14549D01*
G01X36367Y13746D01*
G01X35514Y13746D01*
G37*
G36*
G01X39476Y15245D02*
G01X39476Y16098D01*
G01X40279Y16098D01*
G01X40279Y15245D01*
G01X39476Y15245D01*
G37*
G36*
G01X38628Y15245D02*
G01X38628Y16098D01*
G01X39430Y16098D01*
G01X39430Y15245D01*
G01X38628Y15245D01*
G37*
G36*
G01X39390Y23627D02*
G01X39390Y24480D01*
G01X40192Y24480D01*
G01X40192Y23627D01*
G01X39390Y23627D01*
G37*
G36*
G01X40238Y23627D02*
G01X40238Y24480D01*
G01X41041Y24480D01*
G01X41041Y23627D01*
G01X40238Y23627D01*
G37*
G36*
G01X39390Y24770D02*
G01X39390Y25623D01*
G01X40192Y25623D01*
G01X40192Y24770D01*
G01X39390Y24770D01*
G37*
G36*
G01X40238Y24770D02*
G01X40238Y25623D01*
G01X41041Y25623D01*
G01X41041Y24770D01*
G01X40238Y24770D01*
G37*
G36*
G01X42674Y2972D02*
G01X42674Y3985D01*
G01X43688Y3985D01*
G01X43688Y2972D01*
G01X42674Y2972D01*
G37*
G36*
G01X42674Y1448D02*
G01X42674Y2461D01*
G01X43688Y2461D01*
G01X43688Y1448D01*
G01X42674Y1448D01*
G37*
G36*
G01X45341Y2972D02*
G01X45341Y3985D01*
G01X46355Y3985D01*
G01X46355Y2972D01*
G01X45341Y2972D01*
G37*
G36*
G01X45341Y1448D02*
G01X45341Y2461D01*
G01X46355Y2461D01*
G01X46355Y1448D01*
G01X45341Y1448D01*
G37*
G36*
G01X42489Y22390D02*
G01X42489Y23594D01*
G01X43240Y23594D01*
G01X43240Y22390D01*
G01X42489Y22390D01*
G37*
G36*
G01X43439Y22390D02*
G01X43439Y23594D01*
G01X44190Y23594D01*
G01X44190Y22390D01*
G01X43439Y22390D01*
G37*
G36*
G01X44389Y22390D02*
G01X44389Y23594D01*
G01X45140Y23594D01*
G01X45140Y22390D01*
G01X44389Y22390D01*
G37*
G36*
G01X44389Y19690D02*
G01X44389Y20894D01*
G01X45140Y20894D01*
G01X45140Y19690D01*
G01X44389Y19690D01*
G37*
G36*
G01X42489Y19690D02*
G01X42489Y20894D01*
G01X43240Y20894D01*
G01X43240Y19690D01*
G01X42489Y19690D01*
G37*
G36*
G01X43439Y19690D02*
G01X43439Y20894D01*
G01X44190Y20894D01*
G01X44190Y19690D01*
G01X43439Y19690D01*
G37*
G36*
G01X33538Y36334D02*
G01X33538Y37838D01*
G01X35041Y37838D01*
G01X35041Y36334D01*
G01X33538Y36334D01*
G37*
G36*
G01X33538Y39733D02*
G01X33538Y41237D01*
G01X35041Y41237D01*
G01X35041Y39733D01*
G01X33538Y39733D01*
G37*
G36*
G01X12105Y35671D02*
G01X12105Y37074D01*
G01X14310Y37074D01*
G01X14310Y35671D01*
G01X12105Y35671D01*
G37*
G36*
G01X12105Y38211D02*
G01X12105Y39614D01*
G01X14310Y39614D01*
G01X14310Y38211D01*
G01X12105Y38211D01*
G37*
G36*
G01X6106Y38211D02*
G01X6106Y39614D01*
G01X8310Y39614D01*
G01X8310Y38211D01*
G01X6106Y38211D01*
G37*
G36*
G01X6106Y35671D02*
G01X6106Y37074D01*
G01X8310Y37074D01*
G01X8310Y35671D01*
G01X6106Y35671D01*
G37*
G36*
G01X2753Y38084D02*
G01X2753Y39487D01*
G01X4358Y39487D01*
G01X4358Y38084D01*
G01X2753Y38084D01*
G37*
G36*
G01X2753Y35684D02*
G01X2753Y37086D01*
G01X4358Y37086D01*
G01X4358Y35684D01*
G01X2753Y35684D01*
G37*
G36*
G01X37007Y64043D02*
G01X37007Y64551D01*
G01X38760Y64551D01*
G01X38760Y64043D01*
G01X37007Y64043D01*
G37*
G36*
G01X37007Y63543D02*
G01X37007Y64051D01*
G01X38760Y64051D01*
G01X38760Y63543D01*
G01X37007Y63543D01*
G37*
G36*
G01X37007Y63043D02*
G01X37007Y63551D01*
G01X38760Y63551D01*
G01X38760Y63043D01*
G01X37007Y63043D01*
G37*
G36*
G01X37007Y62542D02*
G01X37007Y63050D01*
G01X38760Y63050D01*
G01X38760Y62542D01*
G01X37007Y62542D01*
G37*
G36*
G01X37007Y62042D02*
G01X37007Y62550D01*
G01X38760Y62550D01*
G01X38760Y62042D01*
G01X37007Y62042D01*
G37*
G36*
G01X32105Y62042D02*
G01X32105Y62550D01*
G01X33858Y62550D01*
G01X33858Y62042D01*
G01X32105Y62042D01*
G37*
G36*
G01X32105Y62542D02*
G01X32105Y63050D01*
G01X33858Y63050D01*
G01X33858Y62542D01*
G01X32105Y62542D01*
G37*
G36*
G01X32105Y63043D02*
G01X32105Y63551D01*
G01X33858Y63551D01*
G01X33858Y63043D01*
G01X32105Y63043D01*
G37*
G36*
G01X32105Y63543D02*
G01X32105Y64051D01*
G01X33858Y64051D01*
G01X33858Y63543D01*
G01X32105Y63543D01*
G37*
G36*
G01X32105Y64043D02*
G01X32105Y64551D01*
G01X33858Y64551D01*
G01X33858Y64043D01*
G01X32105Y64043D01*
G37*
G36*
G01X27767Y63022D02*
G01X27767Y63825D01*
G01X28620Y63825D01*
G01X28620Y63022D01*
G01X27767Y63022D01*
G37*
G36*
G01X27767Y63871D02*
G01X27767Y64673D01*
G01X28620Y64673D01*
G01X28620Y63871D01*
G01X27767Y63871D01*
G37*
G36*
G01X27833Y61854D02*
G01X27833Y62707D01*
G01X28635Y62707D01*
G01X28635Y61854D01*
G01X27833Y61854D01*
G37*
G36*
G01X28681Y61854D02*
G01X28681Y62707D01*
G01X29484Y62707D01*
G01X29484Y61854D01*
G01X28681Y61854D01*
G37*
G36*
G01X34564Y66426D02*
G01X34564Y67279D01*
G01X35366Y67279D01*
G01X35366Y66426D01*
G01X34564Y66426D01*
G37*
G36*
G01X35412Y66426D02*
G01X35412Y67279D01*
G01X36215Y67279D01*
G01X36215Y66426D01*
G01X35412Y66426D01*
G37*
G36*
G01X41229Y64038D02*
G01X41229Y64841D01*
G01X42082Y64841D01*
G01X42082Y64038D01*
G01X41229Y64038D01*
G37*
G36*
G01X41229Y63190D02*
G01X41229Y63992D01*
G01X42082Y63992D01*
G01X42082Y63190D01*
G01X41229Y63190D01*
G37*
G36*
G01X34564Y67442D02*
G01X34564Y68295D01*
G01X35366Y68295D01*
G01X35366Y67442D01*
G01X34564Y67442D01*
G37*
G36*
G01X35412Y67442D02*
G01X35412Y68295D01*
G01X36215Y68295D01*
G01X36215Y67442D01*
G01X35412Y67442D01*
G37*
G36*
G01X48468Y45854D02*
G01X48468Y47058D01*
G01X49222Y47058D01*
G01X49222Y45854D01*
G01X48468Y45854D01*
G37*
G36*
G01X49408Y45854D02*
G01X49408Y47058D01*
G01X50162Y47058D01*
G01X50162Y45854D01*
G01X49408Y45854D01*
G37*
G36*
G01X50347Y45854D02*
G01X50347Y47058D01*
G01X51102Y47058D01*
G01X51102Y45854D01*
G01X50347Y45854D01*
G37*
G36*
G01X50347Y42959D02*
G01X50347Y44163D01*
G01X51102Y44163D01*
G01X51102Y42959D01*
G01X50347Y42959D01*
G37*
G36*
G01X48468Y42959D02*
G01X48468Y44163D01*
G01X49222Y44163D01*
G01X49222Y42959D01*
G01X48468Y42959D01*
G37*
G36*
G01X49255Y48519D02*
G01X49255Y49372D01*
G01X50058Y49372D01*
G01X50058Y48519D01*
G01X49255Y48519D01*
G37*
G36*
G01X48407Y48519D02*
G01X48407Y49372D01*
G01X49209Y49372D01*
G01X49209Y48519D01*
G01X48407Y48519D01*
G37*
G36*
G01X7769Y46106D02*
G01X7769Y46959D01*
G01X8572Y46959D01*
G01X8572Y46106D01*
G01X7769Y46106D01*
G37*
G36*
G01X6921Y46106D02*
G01X6921Y46959D01*
G01X7724Y46959D01*
G01X7724Y46106D01*
G01X6921Y46106D01*
G37*
G36*
G01X6921Y44836D02*
G01X6921Y45689D01*
G01X7724Y45689D01*
G01X7724Y44836D01*
G01X6921Y44836D01*
G37*
G36*
G01X7769Y44836D02*
G01X7769Y45689D01*
G01X8572Y45689D01*
G01X8572Y44836D01*
G01X7769Y44836D01*
G37*
G36*
G01X5415Y43551D02*
G01X5415Y44353D01*
G01X6268Y44353D01*
G01X6268Y43551D01*
G01X5415Y43551D01*
G37*
G36*
G01X5415Y42702D02*
G01X5415Y43505D01*
G01X6268Y43505D01*
G01X6268Y42702D01*
G01X5415Y42702D01*
G37*
G36*
G01X6685Y42702D02*
G01X6685Y43505D01*
G01X7538Y43505D01*
G01X7538Y42702D01*
G01X6685Y42702D01*
G37*
G36*
G01X6685Y43551D02*
G01X6685Y44353D01*
G01X7538Y44353D01*
G01X7538Y43551D01*
G01X6685Y43551D01*
G37*
G36*
G01X42481Y30358D02*
G01X42481Y31211D01*
G01X43284Y31211D01*
G01X43284Y30358D01*
G01X42481Y30358D01*
G37*
G36*
G01X43329Y30358D02*
G01X43329Y31211D01*
G01X44132Y31211D01*
G01X44132Y30358D01*
G01X43329Y30358D01*
G37*
G36*
G01X42270Y28326D02*
G01X42270Y29179D01*
G01X43073Y29179D01*
G01X43073Y28326D01*
G01X42270Y28326D01*
G37*
G36*
G01X41422Y28326D02*
G01X41422Y29179D01*
G01X42224Y29179D01*
G01X42224Y28326D01*
G01X41422Y28326D01*
G37*
G36*
G01X42397Y33787D02*
G01X42397Y34640D01*
G01X43200Y34640D01*
G01X43200Y33787D01*
G01X42397Y33787D01*
G37*
G36*
G01X41549Y33787D02*
G01X41549Y34640D01*
G01X42351Y34640D01*
G01X42351Y33787D01*
G01X41549Y33787D01*
G37*
G36*
G01X43329Y32136D02*
G01X43329Y32989D01*
G01X44132Y32989D01*
G01X44132Y32136D01*
G01X43329Y32136D01*
G37*
G36*
G01X42481Y32136D02*
G01X42481Y32989D01*
G01X43284Y32989D01*
G01X43284Y32136D01*
G01X42481Y32136D01*
G37*
G36*
G01X31163Y21300D02*
G01X31163Y23505D01*
G01X34368Y23505D01*
G01X34368Y21300D01*
G01X31163Y21300D01*
G37*
G36*
G01X31163Y17109D02*
G01X31163Y19314D01*
G01X34368Y19314D01*
G01X34368Y17109D01*
G01X31163Y17109D01*
G37*
G54D68*
G01X30346Y48638D03*
G01X35388Y45726D03*
G01X38297Y40684D03*
G01X38297Y34851D03*
G01X35388Y29814D03*
G01X30346Y26903D03*
G01X24516Y26905D03*
G01X19479Y29815D03*
G01X16568Y34855D03*
G01X16567Y40689D03*
G01X19476Y45720D03*
G01X24519Y48634D03*
G01X30078Y40415D03*
G01X30109Y35094D03*
G01X24762Y35098D03*
G01X24792Y40409D03*
G54D71*
G01X23876Y89967D03*
G01X26416Y89967D03*
G01X28956Y89967D03*
G01X31496Y89967D03*
G36*
G01X7574Y71478D02*
G01X7574Y72588D01*
G01X8684Y72588D01*
G01X8684Y71478D01*
G01X7574Y71478D01*
G37*
G36*
G01X7574Y76355D02*
G01X7574Y77465D01*
G01X8684Y77465D01*
G01X8684Y76355D01*
G01X7574Y76355D01*
G37*
G54D75*
G01X23183Y5999D03*
G01X32004Y5999D03*
G36*
G01X47815Y85585D02*
G01X47815Y87490D01*
G01X49720Y87490D01*
G01X49720Y85585D01*
G01X47815Y85585D01*
G37*
G54D80*
G01X46228Y86538D03*
G01X43688Y86538D03*
G01X41148Y86538D03*
G54D81*
G01X51562Y3353D03*
G01X3810Y3353D03*
G01X44196Y98095D03*
G01X4699Y86157D03*
M00*
M02*
