;Layer: Drill PTH
;EasyEDA v6.2.46, 2019-12-15T14:12:23+01:00
;62ef9a7e5eba40e79a6bb794ca2fffcb,674c0623d3a246009f606e19fc16e94a,10
;Gerber Generator version 0.2
M48
METRIC,LZ,000.000
;Holesize 1 = 0.301 METRIC
T01C0.301
;Holesize 2 = 0.305 METRIC
T02C0.305
;Holesize 3 = 0.310 METRIC
T03C0.310
;Holesize 4 = 0.508 METRIC
T04C0.508
;Holesize 5 = 0.800 METRIC
T05C0.800
;Holesize 6 = 1.000 METRIC
T06C1.000
;Holesize 7 = 1.101 METRIC
T07C1.101
;Holesize 8 = 1.301 METRIC
T08C1.301
;Holesize 9 = 2.000 METRIC
T09C2.000
;Holesize 10 = 4.650 METRIC
T10C4.650
%
G05
G90
T01
X+049403Y+067996
T02
X+020320Y+098095
X+016256Y+098095
X+023876Y+093650
X+020574Y+089332
T03
X+033642Y+074005
X+024444Y+066776
X+014571Y+027825
X+010421Y+095062
X+038958Y+022230
X+037973Y+026594
X+013375Y+095717
X+048387Y+088989
X+021082Y+024943
X+049616Y+044211
X+044178Y+062979
X+018244Y+059634
X+002537Y+049009
X+029072Y+056644
X+030861Y+058836
X+027965Y+057940
X+036022Y+071823
X+030868Y+079461
X+047058Y+095684
X+014790Y+096301
X+033736Y+061557
X+025539Y+060111
X+027388Y+073886
X+010299Y+065227
X+029380Y+078023
X+034940Y+073545
X+023698Y+072166
X+022377Y+074307
X+028107Y+078443
X+026362Y+078023
X+027663Y+070680
X+052260Y+072976
X+042108Y+022674
X+041648Y+018643
X+040005Y+026019
X+041846Y+002075
X+033731Y+077632
X+034533Y+069888
X+034533Y+055240
X+026334Y+051991
X+031048Y+076710
X+032788Y+072326
X+032788Y+053728
X+043944Y+017731
X+040794Y+026848
X+040794Y+016586
T04
X+008128Y+072034
X+008128Y+076911
T05
X+005842Y+025959
X+019050Y+015926
X+040513Y+053137
X+040132Y+058725
T06
X+023876Y+089967
X+026416Y+089967
X+028956Y+089967
X+031496Y+089967
T07
X+048768Y+086538
X+046228Y+086538
X+043688Y+086538
X+041148Y+086538
T08
X+030347Y+048638
X+035387Y+045725
X+038297Y+040685
X+038296Y+034851
X+035387Y+029815
X+030347Y+026903
X+024516Y+026906
X+019479Y+029816
X+016569Y+034854
X+016567Y+040689
X+019477Y+045720
X+024519Y+048633
X+030078Y+040415
X+030109Y+035094
X+024762Y+035099
X+024792Y+040408
T09
X+051562Y+003353
X+003810Y+003353
X+044196Y+098095
X+004699Y+086157
T10
X+023183Y+006000
X+032004Y+006000
M30
